<?xml version="1.0"?><svg width="1600" height="1200" xmlns="http://www.w3.org/2000/svg" xmlns:xlink="http://www.w3.org/1999/xlink">
 <title>film canister and strip</title>
 <defs>
  <linearGradient id="svg_34">
   <stop stop-color="#ffffff" id="svg_70" offset="0"/>
   <stop stop-color="#ffffff" stop-opacity="0" id="svg_69" offset="1"/>
  </linearGradient>
  <linearGradient id="svg_33">
   <stop stop-color="#cccccc" id="svg_65" offset="0"/>
   <stop stop-color="#cccccc" stop-opacity="0" id="svg_64" offset="1"/>
  </linearGradient>
  <linearGradient id="svg_36">
   <stop stop-color="#ffffff" stop-opacity="0" offset="0" id="svg_63"/>
   <stop stop-color="#191212" stop-opacity="0" offset="1" id="svg_62"/>
  </linearGradient>
  <linearGradient id="svg_35">
   <stop stop-color="#ffffff" id="svg_57" offset="0"/>
   <stop stop-color="#191212" stop-opacity="0" id="svg_56" offset="1"/>
  </linearGradient>
  <radialGradient r="15.453287" fy="46.192905" fx="62.47924" cy="46.192905" cx="62.47924" gradientTransform="matrix(2.93566, -0.157038, 0.154327, 2.79926, -144.685, -72.394)" gradientUnits="userSpaceOnUse" id="svg_24" xlink:href="#svg_36"/>
  <linearGradient y2="46.250866" x2="60.624565" y1="40.608917" x1="65.599503" gradientTransform="matrix(2.43838, -0.317456, 0.336755, 2.50976, -119.348, -44.643)" gradientUnits="userSpaceOnUse" id="svg_22" xlink:href="#svg_35"/>
  <linearGradient y2="18.583628" x2="54.028435" y1="18.583628" x1="35.044807" gradientUnits="userSpaceOnUse" id="svg_17" xlink:href="#svg_34"/>
  <linearGradient y2="18.583628" x2="54.028435" y1="18.583628" x1="35.044807" gradientUnits="userSpaceOnUse" id="svg_15" xlink:href="#svg_34"/>
  <linearGradient y2="18.583628" x2="54.028435" y1="18.583628" x1="35.044807" gradientUnits="userSpaceOnUse" id="svg_13" xlink:href="#svg_34"/>
  <linearGradient y2="18.583628" x2="54.028435" y1="18.583628" x1="35.044807" gradientUnits="userSpaceOnUse" id="svg_11" xlink:href="#svg_34"/>
  <linearGradient y2="18.583628" x2="54.028435" y1="18.583628" x1="35.044807" gradientUnits="userSpaceOnUse" id="svg_9" xlink:href="#svg_34"/>
  <linearGradient y2="18.583628" x2="54.028435" y1="18.583628" x1="35.044807" gradientUnits="userSpaceOnUse" id="svg_7" xlink:href="#svg_34"/>
  <linearGradient y2="18.583628" x2="54.028435" y1="18.583628" x1="35.044807" gradientUnits="userSpaceOnUse" id="svg_5" xlink:href="#svg_34"/>
  <radialGradient r="17.561581" fy="44.057957" fx="62.877003" cy="44.057957" cx="62.877003" gradientTransform="matrix(2.65667, 0, 0, 2.69434, -118.125, -69.1265)" gradientUnits="userSpaceOnUse" id="svg_26" xlink:href="#svg_33"/>
  <symbol height="100" width="100" id="svg_72" xmlns:xlink="http://www.w3.org/1999/xlink">
   <metadata id="svg_71">image/svg+xmlFilm &amp; Reel05-03-2008David NiezabitowskiDavid Niezabitowskifilmreel</metadata>
   <defs>
    <filter id="svg_32">
     <feGaussianBlur id="svg_38" stdDeviation="0.472498"/>
    </filter>
   </defs>
   <path fill="#000000" fill-rule="evenodd" stroke="#030000" stroke-width="0.527343" stroke-miterlimit="4" filter="url(#svg_32)" opacity="0.7" id="svg_31" d="m50.400169,4.18612c-25.75354,0 -46.694669,21.195359 -46.694669,47.31681c0,26.121452 20.941129,47.316818 46.694669,47.316818c25.753532,0 46.616043,-21.195366 46.616058,-47.316818c0,-26.12145 -20.862526,-47.31681 -46.616058,-47.31681zm0.157219,2.68576c23.841492,0 43.157188,19.86247 43.157188,44.315078c0,24.452614 -19.315704,44.315079 -43.157188,44.315079c-23.841478,0 -43.235798,-19.862465 -43.235798,-44.315079c0,-24.452608 19.39431,-44.315078 43.235798,-44.315078z"/>
   <g transform="translate(52.2766, 6.0044)" id="svg_28">
    <path fill="#191212" fill-rule="nonzero" stroke-width="0.1" stroke-miterlimit="4" id="svg_30" d="m41.266441,45.265572a16.92388,17.445499 0 1 1 -33.847761,0a16.92388,17.445499 0 1 1 33.847761,0z" transform="matrix(2.65667, 0, 0, 2.61691, -68.0278, -74.8797)"/>
    <path opacity="0.116667" fill="none" fill-rule="evenodd" stroke="#ffffff" stroke-width="0.361885" stroke-miterlimit="4" id="svg_29" d="m-13.56069,25.586611c-3.127581,2.9217 -8.144661,2.419619 -10.939341,-0.69902c-3.21509,-3.58777 -2.61768,-9.22928 0.951151,-12.34169c4.005209,-3.49299 10.2258,-2.80877 13.63184,1.172219c3.75694,4.391129 2.99259,11.154231 -1.37136,14.83521c-4.752419,4.008652 -12.027921,3.169521 -15.968711,-1.554029c-4.249609,-5.09371 -3.34008,-12.85629 1.72381,-17.04428c5.41832,-4.48112 13.646311,-3.50487 18.07076,1.88314c4.70425,5.72872 3.66439,14.40332 -2.03379,19.05492c-6.0268,4.91987 -15.131489,3.819109 -20.002069,-2.17712c-5.128752,-6.31407 -3.969461,-15.83418 2.314129,-20.91647c6.59173,-5.33152 16.514121,-4.11578 21.801611,2.44564c5.52874,6.860791 4.25841,17.1736 -2.57229,22.660399c-7.12206,5.720852 -17.81452,4.397621 -23.49528,-2.694609c-5.908279,-7.37628 -4.533661,-18.43852 2.813059,-24.308341c7.624022,-6.09138 19.04699,-4.66676 25.101361,2.928c6.27045,7.86581 4.79711,19.64115 -3.03975,25.875898c-8.10209,6.44577 -20.222061,4.924881 -26.633321,-3.148567c-6.617599,-8.33329 -5.050228,-20.790661 3.254711,-27.374821c8.559731,-6.78616 21.34776,-5.17332 28.10146,3.35837c6.95162,8.78171 5.29425,21.8941 -3.45972,28.814169c-8.99954,7.114189 -22.43037,5.41317 -29.51383,-3.558929c-7.274021,-9.213459 -5.53017,-22.957129 3.65613,-30.20119c9.423679,-7.43125 23.47493,-5.64534 30.87694,3.75147c7.58603,9.63042 5.75879,23.98426 -3.84504,31.541711c-9.83386,7.738461 -24.485561,5.870579 -32.19606,-3.936951c-7.88868,-10.03417 -5.98082,-24.97924 4.02729,-32.84054c10.231499,-8.03677 25.465669,-6.08954 33.475599,4.11616c8.18285,10.42599 6.19684,25.945181 -4.20361,34.1017c-10.61779,8.326981 -26.418109,6.30275 -34.719251,-4.28973c-8.469257,-10.807009 -6.407349,-26.88474 4.374592,-35.32862c10.99375,-8.60977 27.345329,-6.51068 35.930149,4.45823c8.74857,11.17813 6.61279,27.800149 -4.54072,36.52419c-11.36024,8.885731 -28.24942,6.71373 -37.11101,-4.622112c-9.02132,-11.540169 -6.81356,-28.693368 4.702431,-37.690918c11.718008,-9.1554 29.132199,-6.91229 38.264179,4.78174c9.288,11.89384 7.00997,29.5661 -4.86009,38.83103c-12.06772,9.419201 -29.995239,7.10664 -39.391699,-4.9375c-9.549042,-12.239731 -7.202332,-30.41981 5.014019,-39.94641c12.409929,-9.67756 30.83994,-7.29708 40.49536,5.08966c9.80482,12.5784 7.39091,31.255821 -5.16447,41.038769c-12.74517,9.930832 -31.66755,7.483852 -41.5768,-5.23848c-10.055649,-12.910318 -7.575939,-32.075299 5.311729,-42.109629c13.073872,-10.17932 32.479151,-7.66718 42.637401,5.38421c10.301871,13.23592 7.75763,32.87927 -5.45597,43.16031c-13.39647,10.423328 -33.275742,7.847279 -43.678471,-5.527031c-10.543728,-13.555578 -7.936169,-33.668679 5.597412,-44.192039c13.713289,-10.6631 34.058189,-8.02431 44.701149,5.66714c10.78147,13.86965 8.11173,34.444371 -5.73623,45.20591c-14.02469,10.89888 -34.827311,8.198448 -45.706462,-5.804699c-11.015339,-14.178442 -8.284489,-35.207101 5.872562,-46.202911c14.33095,-11.130869 35.583829,-8.36985 46.695369,5.93985c11.245511,14.48224 8.45456,35.957569 -6.00657,47.183929c-14.63235,11.35928 -36.328402,8.538651 -47.668711,-6.07272c-11.472198,-14.781309 -8.622108,-36.696409 6.138351,-48.149809c14.92914,-11.58427 37.06164,-8.704971 48.627299,6.20346c11.69554,15.07587 8.78724,37.424178 -6.26806,49.101272c-15.22153,11.806026 -37.78409,8.868938 -49.571821,-6.332153c-11.91573,-15.366148 -8.950058,-38.141428 6.395771,-50.039019c15.50975,-12.024691 38.49627,-9.030649 50.50296,6.4589c12.132891,15.65236 9.110689,38.848662 -6.52158,50.963709c-15.79399,12.240379 -39.198661,9.190201 -51.42134,-6.58382c-12.34716,-15.934658 -9.269199,-39.546299 6.645611,-51.875899c16.074409,-12.45325 39.89166,-9.347699 52.32749,6.70697c12.558661,16.21325 9.425699,40.234778 -6.76792,52.776149c-16.35119,12.66341 -40.575698,9.503231 -53.22195,-6.828438c-12.767509,-16.488272 -9.580269,-40.914491 6.88858,-53.664961c16.624479,-12.870979 41.25116,-9.65686 54.10522,6.94831c12.973821,16.75987 9.73298,41.58578 -7.00767,54.5428c-16.89443,13.07605 -41.918369,9.80867 -54.977749,-7.06665c-13.17767,-17.028179 -9.8839,-42.248989 7.125271,-55.41011c4.938087,-3.82092 10.770319,-6.443919 16.904697,-7.606389" transform="matrix(1.09923, 0, 0, 1.11145, 16.6299, 21.4197)"/>
   </g>
   <path fill="#cccccc" fill-rule="nonzero" stroke-width="0.1" stroke-miterlimit="4" id="svg_27" d="m48.95834,2.26367c-25.75354,0 -46.69467,21.19537 -46.69467,47.31682c0,26.121452 20.94113,47.316811 46.69467,47.316818c25.753529,0 46.616039,-21.195381 46.616047,-47.316818c0,-26.12145 -20.862518,-47.31682 -46.616047,-47.31682zm0.157219,2.68576c23.841488,0 43.157192,19.862469 43.157192,44.315089c-0.000008,24.452614 -19.315704,44.315079 -43.157192,44.315079c-23.841488,0.000015 -43.235799,-19.86248 -43.235799,-44.315079c-0.00001,-24.452608 19.394311,-44.315089 43.235799,-44.315089z"/>
   <path fill="url(#svg_26)" fill-rule="evenodd" stroke="#867f7f" stroke-width="0.527343" stroke-miterlimit="4" d="m48.95834,2.26367c-25.75354,0 -46.69467,21.19537 -46.69467,47.31682c0,26.121452 20.94113,47.316811 46.69467,47.316818c25.753529,0 46.616039,-21.195381 46.616047,-47.316818c0,-26.12145 -20.862518,-47.31682 -46.616047,-47.31682zm0.157219,2.68576c23.841488,0 43.157192,19.862469 43.157192,44.315089c-0.000008,24.452614 -19.315704,44.315079 -43.157192,44.315079c-23.841488,0.000015 -43.235799,-19.86248 -43.235799,-44.315079c-0.00001,-24.452608 19.394311,-44.315089 43.235799,-44.315089z" id="svg_25"/>
   <g transform="matrix(1.01321, 0, 0, 1.01656, 1.46583, 1.26588)" id="svg_3">
    <path fill="url(#svg_24)" fill-rule="nonzero" stroke-width="1px" d="m29.23283,5.08746l33.87487,84.026233l22.480587,-22.144104l-79.451957,-43.07481l23.0965,-18.807319z" id="svg_23"/>
    <path fill="url(#svg_22)" fill-rule="evenodd" stroke-width="1px" d="m41.749599,35.02549c15.306641,-6.30204 20.640682,9.52142 17.00087,15.250992c-3.76638,-11.621071 -8.214848,-13.66243 -17.00087,-15.250992z" id="svg_21"/>
    <path fill="#d5d2d2" fill-rule="nonzero" stroke-width="0.2" stroke-linecap="square" stroke-linejoin="bevel" stroke-miterlimit="4" id="svg_20" d="m46.913719,3.59564c-23.430288,0 -42.456159,19.507719 -42.456159,43.538c0,24.030293 19.025859,43.538013 42.456159,43.538013c23.43029,0 42.456161,-19.507721 42.456154,-43.538013l0,-1.05595c-0.557541,-23.65362 -19.386391,-42.48205 -42.456154,-42.48205zm-5.44099,2.68051c6.718639,0 12.203503,5.322879 12.365871,11.94046l0,0.24369c0.000011,6.72296 -5.542229,12.184139 -12.365871,12.184139c-6.823627,0 -12.36587,-5.46118 -12.36587,-12.184139c0.000011,-6.72297 5.542242,-12.18415 12.36587,-12.18415zm7.419533,0c7.89793,0.30544 14.264248,3.23649 20.032711,7.391719c-5.846924,-0.111349 -9.818432,2.17245 -12.778072,5.76716c-0.940922,-8.21352 -4.329792,-10.00399 -7.254639,-13.15888zm-20.115152,4.38629c-2.702509,5.10989 -2.44525,9.597779 -0.494638,13.8087c-7.884192,-2.823931 -11.082371,-0.52751 -15.251241,0.64982c3.79143,-6.833389 9.40264,-11.21699 15.745879,-14.45852zm38.663954,4.62998c6.718651,0 12.203499,5.322869 12.365875,11.940459l0,0.243681c-0.000008,6.72296 -5.542236,12.184149 -12.365875,12.184149c-6.823631,0 -12.365871,-5.461189 -12.365871,-12.184149c0.000008,-6.722961 5.54224,-12.18414 12.365871,-12.18414zm-46.165922,9.34117c6.718649,0 12.203501,5.32288 12.36587,11.94046l0,0.24369c0,6.722958 -5.542231,12.184139 -12.36587,12.184139c-6.82363,0 -12.36587,-5.461182 -12.36587,-12.184139c0,-6.722971 5.54224,-12.184151 12.36587,-12.184151zm60.510336,3.00543c3.797646,6.83003 4.523003,13.782698 3.874641,20.79426c-2.911331,-4.99728 -6.890366,-7.146751 -11.541489,-7.797852c6.663979,-5.020798 6.426018,-8.90205 7.666847,-12.996408zm-73.370836,13.889917c2.740439,5.09024 6.667669,7.400311 11.294159,8.203991c-6.830329,4.798882 -6.700239,8.620232 -8.07904,12.671501c-3.56419,-6.951099 -4.10061,-13.889149 -3.215119,-20.875492zm64.220087,1.21841c6.718643,0 12.203499,5.24165 12.365875,11.859241l0,0.324909c0,6.722961 -5.542236,12.184139 -12.365875,12.184139c-6.823631,0 -12.365868,-5.461178 -12.365868,-12.184139c0,-6.722969 5.542229,-12.184151 12.365868,-12.184151zm-47.402508,8.122761c6.718639,0.000011 12.203499,5.32288 12.365871,11.94046l0,0.24369c0,6.722961 -5.542233,12.184143 -12.365871,12.184143c-6.823629,0 -12.36587,-5.461182 -12.36587,-12.184143c0,-6.722961 5.54224,-12.184151 12.36587,-12.184151zm25.391262,12.3466c6.718647,0.000011 12.203487,5.32288 12.365868,11.940464l0,0.24369c0,6.722969 -5.542229,12.184135 -12.365868,12.184135c-6.823631,0 -12.365871,-5.461182 -12.365871,-12.184135c0,-6.722977 5.542229,-12.184155 12.365871,-12.184155zm13.107819,4.548748c7.757736,3.145599 11.036163,1.004913 15.251236,0c-4.077499,6.671562 -9.765526,10.830772 -16.240505,13.808701c2.916546,-4.994339 2.759876,-9.521255 0.989269,-13.808701zm-27.946869,4.223846c0.020237,8.265648 3.215019,10.437775 5.770737,13.889915c-7.816177,-1.157761 -13.855167,-4.830879 -19.125877,-9.584862c5.799189,0.743019 10.012939,-1.052155 13.355141,-4.305054z"/>
    <path fill="#000000" fill-rule="evenodd" stroke="#060000" stroke-width="0.4" stroke-linecap="square" stroke-linejoin="bevel" stroke-miterlimit="4" id="svg_19" d="m54.59259,43.36953a2.19949,2.19949 0 1 1 -0.000641,-0.053162" transform="matrix(2.65667, 0, 0, 2.61691, -92.2563, -67.4199)"/>
    <path fill="#dfd8d8" fill-rule="evenodd" stroke-width="1px" d="m39.59333,47.992729l7.53038,-1.96526l0.644711,2.045761l-7.512211,2.056l-0.66288,-2.136501z" id="svg_18"/>
    <path fill="none" fill-rule="evenodd" stroke="url(#svg_17)" stroke-width="0.90573" stroke-linecap="square" stroke-linejoin="bevel" stroke-miterlimit="4" id="svg_16" d="m53.82843,18.58363a9.29181,11.05405 0 1 1 -0.002708,-0.267149" transform="matrix(1.30635, 0, 0, 1.07635, -16.6875, -1.49894)"/>
    <path fill="none" fill-rule="evenodd" stroke="url(#svg_15)" stroke-width="0.90573" stroke-linecap="square" stroke-linejoin="bevel" stroke-miterlimit="4" transform="matrix(1.30635, 0, 0, 1.07635, 9.42572, 7.63267)" d="m53.82843,18.58363a9.29181,11.05405 0 1 1 -0.002708,-0.267149" id="svg_14"/>
    <path fill="none" fill-rule="evenodd" stroke="url(#svg_13)" stroke-width="0.90573" stroke-linecap="square" stroke-linejoin="bevel" stroke-miterlimit="4" id="svg_12" d="m53.82843,18.58363a9.29181,11.05405 0 1 1 -0.002708,-0.267149" transform="matrix(1.30635, 0, 0, 1.07635, 14.7124, 35.0275)"/>
    <path fill="none" fill-rule="evenodd" stroke="url(#svg_11)" stroke-width="0.90573" stroke-linecap="square" stroke-linejoin="bevel" stroke-miterlimit="4" transform="matrix(1.30635, 0, 0, 1.07635, -37.3538, 16.7643)" d="m53.82843,18.58363a9.29181,11.05405 0 1 1 -0.002708,-0.267149" id="svg_10"/>
    <path fill="none" fill-rule="evenodd" stroke="url(#svg_9)" stroke-width="0.90573" stroke-linecap="square" stroke-linejoin="bevel" stroke-miterlimit="4" id="svg_8" d="m53.82843,18.58363a9.29181,11.05405 0 1 1 -0.002708,-0.267149" transform="matrix(1.30635, 0, 0, 1.07635, -32.8681, 43.1979)"/>
    <path fill="none" fill-rule="evenodd" stroke="url(#svg_7)" stroke-width="0.90573" stroke-linecap="square" stroke-linejoin="bevel" stroke-miterlimit="4" transform="matrix(1.30635, 0, 0, 1.07635, -7.39567, 55.3734)" d="m53.82843,18.58363a9.29181,11.05405 0 1 1 -0.002708,-0.267149" id="svg_6"/>
    <path fill="none" fill-rule="evenodd" stroke="url(#svg_5)" stroke-width="0.90573" stroke-linecap="square" stroke-linejoin="bevel" stroke-miterlimit="4" id="svg_4" d="m53.82843,18.58363a9.29181,11.05405 0 1 1 -0.002708,-0.267149" transform="matrix(0.670761, 0, 0, 0.549335, 17.1464, 35.8499)"/>
   </g>
  </symbol>
 </defs>
 <metadata id="metadata7">image/svg+xml</metadata>
 <g>
  <title>Layer 1</title>
  <g id="layer1" transform="rotate(161.936, 840.588, 505.447)">
   <path id="path9192" fill="#000000" fill-rule="evenodd" stroke-miterlimit="4" stroke-width="141.732" d="m1214.508057,341.730316c-207.981995,-19.60675 -341.286743,33.427765 -440.050964,80.286957c-98.764526,46.857971 -158.112244,82.479736 -293.882141,72.414917l-0.533081,6.914703l3.973633,0.346313l-0.009094,-0.037842l6.395325,0.439575l0.03894,-0.00885l0.712891,0.040466l-0.392151,6.64093l-0.751526,-0.030426l-0.040161,0.009094l-6.434509,-0.431915l-0.039063,0.00882l-3.973206,-0.345123l-0.762024,9.579437c8.873169,0.589539 17.463928,0.97937 25.777344,1.195313l-0.560852,133.157288c-11.586548,-0.159973 -23.475952,-0.600098 -35.676666,-1.404419l-0.539764,6.715515l6.887146,0.248413l0.038879,-0.00885l4.701355,0.101624l-0.177795,6.673401l-4.748108,-0.13092l-7.220459,-0.252625l-0.573486,7.606995c178.287354,13.217834 294.486816,-45.552429 387.999023,-89.919739c93.513428,-44.367554 169.224609,-79.374115 342.223572,-63.065735l0.802856,-7.860931l-0.126831,-0.011169l0.684814,-6.628693l0.087646,0.02124l0.885498,-8.723572c-2.247803,-0.198242 -4.449951,-0.359253 -6.667847,-0.539917l12.655884,-132.762604c2.404785,0.192383 4.79895,0.402466 7.224121,0.614624l0.831421,-8.429626l-3.398315,-0.194885l0.430786,-6.651001l3.643555,0.17926l0.563354,-5.756042l0,0l0,0l0,0zm-11.081299,5.204651l-0.352905,6.633301l-5.908691,-0.309265l-0.040039,0.009094l-7.736206,-0.337708l0.30481,-6.662354l7.784302,0.36676l0.03894,-0.00885l5.90979,0.309021zm-20.621582,-0.916199l-0.225708,6.644409l-4.717896,-0.176392l0.008911,0.037842l-8.959595,-0.26123l0.186768,-6.635559l8.950684,0.223389l0.03894,-0.00885l4.717896,0.176392zm-10.275635,13.906555l-9.2854,132.842896c-38.038696,-1.933197 -71.473389,-1.210876 -101.571777,1.62561l-7.348877,-131.807739c36.141968,-3.486755 75.368652,-4.637512 118.206055,-2.660767zm-10.340454,-14.461182l-0.098999,6.655518l-2.990356,-0.045471l-9.176758,-0.132263l0.009033,0.037842l-1.495239,-0.022766l0.01123,-6.676758l1.534668,0.015015l9.21582,0.122192l0.039307,-0.008911l2.951294,0.055603zm29.171631,157.899719l-0.597412,6.647614l-2.244751,-0.214447l-0.039185,0.008881l-8.259766,-0.621735l-3.026978,-0.197998l0.470459,-6.659943l3.036133,0.23703l0.039307,-0.008881l8.298706,0.611664l0.039185,-0.008881l0.009399,0.039032l2.274902,0.167664l0,0zm-49.784424,-158.093689l-0.01123,6.675598l-0.664551,-0.010254l-0.039429,0.008911l-8.846924,0.034912l-0.039185,0.00885l-4.047607,0.032043l-0.106445,-6.648926l4.086792,-0.042114l0.039063,-0.00885l8.925903,-0.051514l0.039185,-0.00885l0.664429,0.010193zm29.192871,156.608521l-0.39209,6.640961l-6.289673,-0.343872l-0.039307,0.008881l-7.334717,-0.387543l0.352661,-6.63327l7.364746,0.340851l0.048706,0.030151l6.289673,0.343842zm-49.831909,-156.39502l0.145752,6.640015l-6.502808,0.146973l-7.149292,0.212402l-0.233154,-6.660095l7.18811,-0.222473l0.048706,0.030151l6.502686,-0.146973zm29.232056,155.392883l-0.265015,6.65329l-1.425659,-0.0784l0.009033,0.037842l-7.630493,-0.240753l-0.039185,0.008881l-4.573364,-0.089447l0.17749,-6.67334l4.573242,0.089478l7.6698,0.231873l0.039185,-0.008911l1.464966,0.069489zm-49.818481,-154.788696l0.272339,6.651184l-2.953613,0.106995l-8.266357,0.385742l-2.446411,0.151672l-0.390503,-6.625732l2.446533,-0.151611l0.039185,-0.008911l8.305542,-0.394653l0.039307,-0.00885l2.953979,-0.105835zm29.180908,154.318665l-0.098633,6.656738l-3.489136,-0.054688l-0.039185,0.008911l-7.203369,-0.0159l-0.040161,0.009125l-2.845093,0.041229l-0.067383,-6.657745l2.885254,-0.050354l0.047974,0.029022l7.282471,-0.002014l0.039307,-0.008911l3.527954,0.044586zm-49.82373,-153.260437l0.468628,6.607971l-6.918335,0.48175l-0.040161,0.009094l-6.713257,0.476379l-0.516602,-6.636963l6.752075,-0.485229l0.03894,-0.008789l6.928711,-0.444214l0,0zm29.149048,153.322418l0.154297,6.677917l-4.487671,0.093109l-0.040283,0.009094l-6.904663,0.196899l-2.209961,0.099335l-0.311768,-6.643555l2.249023,-0.108154l0.040283,-0.009094l6.943481,-0.205719l0.03894,-0.00882l4.52832,-0.101013zm-49.731445,-151.835358l0.605225,6.658081l-2.152954,0.166199l-0.03894,0.00885l-7.656494,0.688843l-0.03894,0.00885l-3.711304,0.398315l-0.682739,-6.639221l3.720337,-0.360535l0.03894,-0.00885l7.686279,-0.736694l0.038818,-0.00885l2.191772,-0.174988zm29.054443,152.579742l0.389404,6.625916l-4.499512,0.215424l0.009033,0.037811l-6.605713,0.410889l-0.03894,0.00882l-2.484863,0.161652l-0.517944,-6.636688l2.525269,-0.170776l0.03894,-0.00882l6.644531,-0.419708l0.039063,-0.00882l4.500732,-0.215698zm-49.595337,-150.578461l0.761963,6.621338l-4.474243,0.491455l-0.040283,0.009094l-7.316162,0.893433l-0.038818,0.00885l-1.646606,0.21228l-0.927979,-6.623596l1.724609,-0.229919l0.009033,0.037842l7.395142,-0.911438l0.03894,-0.008789l4.514404,-0.500549zm28.985718,151.952026l0.595825,6.61908l-3.572876,0.285919l0.009277,0.039032l-6.314697,0.585571l-0.03894,0.00882l-3.672241,0.390717l-0.723145,-6.631317l3.672485,-0.389557l0.03894,-0.00882l6.353516,-0.595581l0.040161,-0.009094l3.611694,-0.294769zm-49.485413,-149.437744l0.966797,6.614807l-5.888306,0.811829l-0.039063,0.008789l-6.99646,1.02179l-0.03894,0.008789l-0.518921,0.077698l-1.123779,-6.579163l0.557861,-0.086548l0.03894,-0.008789l7.075439,-1.040894l0.038818,-0.00885l5.927612,-0.819458zm-2.313965,14.1521l15.58783,130.786224c-31.975037,4.842804 -60.187927,12.21283 -86.612427,21.190979l-38.246765,-126.575989c32.974426,-10.437775 69.098389,-19.372528 109.271362,-25.401215l0,0zm31.237732,137.371399l0.800781,6.612518l-1.811523,0.209717l-0.03894,0.00885l-5.976685,0.790649l-0.03894,0.00885l-5.60437,0.787354l-0.997681,-6.567841l5.644287,-0.796448l0.03894,-0.00882l6.054321,-0.80954l0.03894,-0.00882l1.890869,-0.226471zm-49.335754,-148.466919l1.162842,6.570374l-6.487549,1.068542l-0.03894,0.008789l-6.706787,1.197998l-0.195923,0.044373l-1.281006,-6.544861l0.195923,-0.044373l0.03894,-0.008789l6.745605,-1.206787l0.03894,-0.00885l6.527954,-1.076416zm28.800232,151.3508l1.162842,6.570374l-5.214783,0.859924l-0.03894,0.008789l-5.637573,0.995605l-0.039063,0.00885l-2.490967,0.484619l-1.281006,-6.54483l2.530273,-0.492218l0.03894,-0.00882l5.715454,-1.013275l0.040161,-0.009094l5.214661,-0.859924zm-49.122803,-147.750946l1.359802,6.525696l-6.286072,1.223572l-0.039001,0.00885l-7.043762,1.514893l-1.476685,-6.499268l7.12146,-1.533752l0.038818,-0.008789l6.325439,-1.231201zm28.827454,151.464294l1.359009,6.52713l-1.902344,0.349976l0.009033,0.037842l-5.394531,1.142517l-0.077881,0.017639l-5.887451,1.333923l-1.595093,-6.473694l5.965454,-1.351563l0.03894,-0.00885l5.503784,-1.205841l0.03894,-0.00882l1.942139,-0.36026zm-49.04303,-147.246765l1.556091,6.482483l-11.529846,2.652283l-0.077881,0.017639l-1.639832,0.411438l-1.712769,-6.44574l1.717712,-0.429077l0.03894,-0.00885l11.647583,-2.680176zm30.573669,158.225311l-8.5401,2.176819l-0.077881,0.017639l-4.576904,1.277588l-1.869751,-6.410156l4.654419,-1.296448l0.040161,-0.009094l0.03894,-0.008789l8.579407,-2.184448l1.751709,6.43689zm-48.89978,-146.997437l-3.788086,0.939331l-0.079102,0.017914l-9.288696,2.505981l-1.829651,-6.419312l9.366394,-2.52478l0.038879,-0.00885l3.867493,-0.956055l1.712769,6.44577zm29.184753,152.268433l-8.870117,2.694092l-0.079102,0.017944l-4.038269,1.276428l-2.135681,-6.309998l4.069031,-1.324585l0.038879,-0.00885l0.03894,-0.00885l8.958679,-2.672974l2.017639,6.336792zm-48.890381,-146.958466l-7.434692,2.125824l-0.079163,0.017914l-5.541565,1.738007l-2.065735,-6.365784l5.629761,-1.718109l0.03894,-0.00882l7.503296,-2.182465l1.949158,6.393433zm29.456055,153.050873l-8.671387,3.009338l-0.009033,-0.037842l-4.140137,1.541443l-2.409485,-6.248047l4.18811,-1.51239l0.03894,-0.00885l0.040161,-0.009033l8.708984,-3.017944l2.253845,6.283325zm-48.985657,-147.17868l-10.09198,3.291351l-0.039001,0.00882l-2.792664,0.954346l-2.291504,-6.27475l2.830383,-0.962891l0.039001,-0.00882l0.040161,-0.009094l10.130676,-3.301361l2.174927,6.302399zm29.811829,154.014862l-7.909119,3.078491l-0.039001,0.008911l-4.722351,1.874023l-2.588257,-6.126526l4.713074,-1.913025l0.03894,-0.00885l0.038879,-0.00885l7.949402,-3.087585l2.518433,6.183411zm-12.844788,-10.758545c-24.418091,9.680054 -47.845459,20.558594 -71.987793,31.950195c-6.299561,2.971191 -12.655579,5.983276 -19.101013,9.03125l-60.4729,-119.53067c6.268433,-2.991058 12.608154,-6.043335 19.121948,-9.115692c26.615295,-12.557892 55.305237,-25.409668 86.961487,-37.151733l45.478271,124.81665zm-36.348938,-136.774353l-1.415161,0.481476l-0.040161,0.009094l-10.393799,3.761078l-0.07782,0.017639l-0.836548,0.310455l-2.479492,-6.19223l0.914368,-0.328094l-0.009094,-0.037842l0.038879,-0.00882l10.512756,-3.789307l0.03894,-0.00882l1.454102,-0.490295l2.29303,6.275665zm30.273376,155.077087l-6.84137,2.876465l-0.077881,0.0177l-5.581909,2.430298l-2.824707,-6.074219l5.661133,-2.448242l0.038879,-0.008789l6.910278,-2.931946l2.715576,6.138733zm-49.410461,-148.088379l-2.9599,1.113159l-0.040161,0.009125l-9.671814,3.839355l-2.557373,-6.174591l9.710754,-3.848206l0.038879,-0.00882l3,-1.122253l2.479614,6.19223zm30.705078,156.186035l-5.602783,2.514771l-0.03894,0.008789l-6.747437,3.097046l-2.932007,-6.008667l6.786377,-3.105835l-0.009094,-0.037842l0.03894,-0.008789l5.6427,-2.525146l2.862244,6.065674zm-49.673767,-148.672028l-3.808044,1.545929l-0.040161,0.009094l-8.72052,3.664978l-2.705322,-6.101196l8.759705,-3.672607l0.029602,-0.047852l3.848206,-1.555023l2.636536,6.156677l0,0zm31.147949,157.170197l-4.236572,2.005859l-8.049255,3.87439l-3.050354,-5.983154l8.059814,-3.835693l0.039001,-0.008789l-0.009338,-0.039063l4.24585,-1.966797l3.000854,5.953247zm-49.937988,-149.25412l-4.12561,1.778687l-0.038879,0.00882l-8.301392,3.689697l-2.814087,-6.035431l8.301453,-3.689697l0.03894,-0.00882l-0.009399,-0.039032l4.164551,-1.787476l2.784424,6.083252zm31.533691,158.087616l-11.33252,5.543213l-0.887085,0.44165l-3.08905,-5.973145l0.89624,-0.403809l11.371338,-5.552002l3.041077,5.944092zm-50.154541,-149.808472l-3.989014,1.828796l-8.381592,3.868652l-2.971008,-5.999847l8.412415,-3.916809l3.997192,-1.78949l2.932007,6.008698zm31.786743,158.794434l-10.040771,4.889038l0.009094,0.037842l-2.226807,1.066772l-3.050049,-5.981934l2.1875,-1.059204l0.040222,-0.009033l9.99176,-4.916626l3.08905,5.973145zm-50.333069,-150.210541l-12.313232,5.765472l-1.505676,-2.995972l-1.505737,-2.995972l0.040161,-0.009094l12.313599,-5.764313l2.970886,5.999878zm31.95636,159.158661l-8.906433,4.269287l-0.029907,0.046631l-3.388672,1.571899l-3.002075,-5.953003l3.379578,-1.609619l8.897339,-4.307129l3.050171,5.981934zm-50.437439,-150.468658l-11.328918,5.381653l-1.003967,0.468048l-3.011169,-5.990753l1.004944,-0.469543l0.03894,-0.00882l11.290222,-5.371613l3.009949,5.991028zm31.906006,159.290924l-8.007935,3.704224l-0.039001,0.008911l-4.362793,1.993164l-2.902466,-6.056519l4.332947,-1.946533l0.040161,-0.009155l8.006714,-3.703979l2.932373,6.009888zm-9.020508,-13.273071c-31.381653,14.210327 -65.022034,28.113037 -102.35376,39.391357l-42.00061,-125.322815c30.674805,-9.315918 59.079285,-21.696472 88.890381,-35.659027l55.463989,121.590485zm-41.394897,-137.280243l-10.107666,4.782043l-2.23584,1.0289l-2.970947,-5.999878l2.23584,-1.0289l10.107361,-4.783234l2.971252,6.001068zm31.72345,159.049286l-7.444153,3.2948l-0.038879,0.008789l-5.069519,2.154663l-2.705444,-6.101196l4.990784,-2.135498l0.03894,-0.008911l7.414307,-3.248047l2.813965,6.0354zm-50.291809,-150.380646l-0.147644,0.074585l-0.038879,0.00882l0.008972,0.037842l-8.587769,3.875488l-0.039001,0.00882l-3.662415,1.633881l-2.854492,-6.027527l3.624756,-1.625336l0.03894,-0.00882l8.538635,-3.904236l0.03894,-0.00882l0.147888,-0.073395l2.932068,6.008698zm31.420288,158.475983l-7.351257,2.991943l-0.038879,0.008911l-5.331909,2.09314l-2.558655,-6.174316l5.333069,-2.093506l0.009338,0.039063l7.262817,-3.013062l2.675476,6.147827zm-50.130371,-150.055725l-7.344299,3.192352l-0.03894,0.00882l-5.226746,2.188995l-2.715637,-6.138733l5.226807,-2.188995l0.009094,0.037811l7.266602,-3.173492l2.82312,6.073242zm30.9646,157.614441l-7.739624,2.919189l-0.0401,0.009033l-5.111938,1.801514l-2.331665,-6.265625l5.034058,-1.783936l0.038818,-0.008789l7.710999,-2.872803l2.439453,6.201416zm-49.902588,-149.624939l-5.884216,2.37912l-0.03894,0.00882l-6.856018,2.63916l-2.519775,-6.183136l6.778198,-2.621521l0.038879,-0.00885l5.845398,-2.37027l2.636475,6.156677zm30.512451,156.591125l-8.806335,2.960144l-0.03894,0.00885l-0.040161,0.009094l-4.15625,1.303223l-2.104614,-6.356995l4.15625,-1.303223l0.009094,0.037842l8.767395,-2.951294l2.213562,6.292358zm-49.744446,-149.137115l-4.406128,1.641541l-0.038879,0.00882l-8.484497,2.927124l-2.291443,-6.27475l8.40387,-2.910126l0.0401,-0.009094l4.367188,-1.632721l2.40979,6.249207zm30.12085,155.473175l-10.755432,3.119995l-0.03894,0.00885l-0.03894,0.008789l-2.406372,0.666138l-1.831116,-6.420166l2.367676,-0.656128l0.039001,-0.00885l10.676025,-3.103271l1.988098,6.384644zm-49.604919,-148.727478l-3.075562,0.978577l-0.031128,0.046936l-0.03894,0.00882l-9.224548,2.773163l-0.03894,0.00882l-0.03894,0.00885l-0.736633,0.208038l-1.899963,-6.364746l0.696777,-0.197723l0.038879,-0.00882l9.098755,-2.784546l0.038879,-0.00882l3.027527,-1.007599l2.183838,6.33905zm29.75824,154.309998l-2.101807,0.555969l-0.03894,0.00885l-0.038879,0.008789l-11.131042,2.763855l-1.713013,-6.44696l11.052124,-2.74469l0.077881,-0.0177l2.062561,-0.54834l1.831116,6.420227zm-49.53186,-148.422424l-2.014465,0.577362l-0.038879,0.00882l-0.03894,0.00882l-9.512207,2.435669l-0.03894,0.00882l-0.040222,0.009125l-1.725586,0.390961l-1.595947,-6.472229l1.687866,-0.382416l0.077881,-0.017639l9.31604,-2.392487l0.078979,-0.017914l1.934204,-0.559174l1.910217,6.402283zm27.923889,146.844604l1.517212,6.491333l-5.455505,1.236084l-0.048096,-0.028992l-6.022766,1.283569l-0.03894,0.008789l-1.892883,0.389038l-1.360168,-6.526917l1.853027,-0.378723l0.040161,-0.009094l5.943359,-1.266846l0.040161,-0.009094l5.424438,-1.189148zm-10.249023,-5.637329c-34.559326,8.187866 -72.198364,13.87793 -113.919861,15.519348l-7.804688,-132.669312c33.75824,-0.701721 63.046692,-4.628296 89.984131,-10.940063l31.740417,128.090027zm-37.747131,-136.216888l-1.294861,0.293365l-0.040161,0.009125l-0.038879,0.00882l-9.856934,2.031342l-0.038879,0.00882l-2.295105,0.440216l-1.281006,-6.54483l2.216187,-0.421082l0.03894,-0.00885l9.739807,-2.006073l0.07782,-0.017639l1.177979,-0.266907l1.595093,6.473694zm28.015869,146.019745l1.282288,6.544556l-3.726379,0.683472l-6.303345,1.146423l-0.040161,0.009094l-3.459229,0.583069l-1.164185,-6.571289l3.421448,-0.574524l0.03894,-0.008789l6.225464,-1.128784l0.03894,-0.00885l3.686218,-0.674377zm-49.56842,-148.574951l1.194092,6.524658l-1.029114,0.192017l-0.03894,0.00885l-5.136902,0.842255l-0.03894,0.00882l-5.162842,0.728485l-0.040222,0.009094l-2.243774,0.306427l-0.918762,-6.585785l2.165588,-0.289948l0.03894,-0.00882l5.076172,-0.747498l0.03894,-0.00882l5.0578,-0.824341l0.03894,-0.00882l0.999023,-0.146576zm29.424377,152.053284l1.085144,6.589172l-2.675476,0.405518l-0.03894,0.008789l-6.634583,0.979675l-0.03894,0.00885l-4.250916,0.561707l-0.918762,-6.585754l4.202759,-0.590759l0.039001,-0.008789l6.516296,-0.954102l0.03894,-0.00885l2.675476,-0.405457zm-49.588623,-149.172455l0.840881,6.603394l-1.488403,0.176422l-0.040222,0.009094l-0.03894,0.00882l-5.326904,0.56369l-0.03894,0.00885l-5.413879,0.543488l-0.049194,-0.028717l-1.3797,0.110657l-0.556885,-6.627899l1.30188,-0.093018l0.03894,-0.00882l5.345093,-0.488037l0.03894,-0.00882l5.23999,-0.583862l0.079102,-0.017944l1.448242,-0.167297zm29.326843,151.994293l0.88916,6.633606l-2.496765,0.283997l-0.040161,0.009094l-6.924316,0.804688l-0.03894,0.008789l-4.200439,0.429443l-0.713867,-6.592346l4.152588,-0.458374l0.03894,-0.00885l6.846375,-0.787048l0.03894,-0.00885l2.448486,-0.314148zm-49.602112,-150.09436l0.477661,6.645813l-2.847351,0.202576l-0.03894,0.00882l-5.597229,0.303345l-0.039001,0.00882l-5.243103,0.223083l-0.311401,-6.642334l5.194885,-0.253296l0.03894,-0.00882l5.518188,-0.285431l0.038879,-0.00882l2.808472,-0.193756zm29.282288,152.327271l0.68396,6.638977l-3.192383,0.320679l-0.009094,-0.037842l-7.293091,0.647644l-3.249512,0.253845l-0.516541,-6.637024l3.170349,-0.235901l0.03894,-0.008789l7.215149,-0.630005l0.03894,-0.00885l3.113281,-0.302734zm-49.65918,-151.369171l0.145569,6.641266l-5.19281,0.09079l-0.03894,0.00882l-5.91449,0.013672l-0.03894,0.00882l-2.610107,-0.011963l0.011658,-6.675659l2.570984,0.019592l0.087219,0.021393l5.787354,-0.02478l0.040222,-0.009094l5.152283,-0.082855zm29.280823,153.010712l0.477783,6.645813l-4.844543,0.333496l-0.039001,0.00885l-7.632202,0.442749l-0.048035,-0.028992l-1.183472,0.067444l-0.351807,-6.63446l1.184692,-0.067749l0.039001,-0.008789l7.553101,-0.424866l0.038879,-0.008789l4.805603,-0.324707zm-49.721313,-153.001801l-0.137573,6.664276l-2.580383,-0.058594l-0.038879,0.00882l-6.135559,-0.217957l-0.038879,0.00882l-4.981995,-0.238739l0.31427,-6.623291l4.932373,0.208832l0.040161,-0.009125l6.047363,0.198059l0.039001,-0.00882l2.5401,0.067719l0,0zm29.302002,154.130341l0.232544,6.661499l-7.541687,0.301331l-0.039001,0.00885l-6.130798,0.143738l-0.184509,-6.632507l6.081909,-0.171265l0.0401,-0.009094l7.541443,-0.302551zm-20.499329,0.624329l0.145508,6.641296l-3.16803,0.074585l-8.299988,0.071716l-2.316895,0.001404l-0.019409,-6.628723l2.268677,-0.031616l0.039001,-0.008789l8.221985,-0.054138l0.03894,-0.008789l3.09021,-0.056946zm-20.452209,0.131226l-0.050354,6.68573l-7.799377,-0.082825l-0.03894,0.008789l-5.901794,-0.110107l0.098572,-6.655457l5.901855,0.110107l7.790039,0.043762z"/>
  </g>
  <use x="635.213576" y="39.797795" transform="matrix(5.42991, 0, 0, 6.37415, -2314.41, -308.751)" xlink:href="#svg_72" id="svg_74"/>
  <g id="svg_75" transform="rotate(165.126, 216.846, 852.223)">
   <path id="svg_76" fill="#000000" fill-rule="evenodd" stroke-miterlimit="4" stroke-width="141.732" d="m630.575684,688.505188c-230.124725,-19.606812 -377.621735,33.427734 -486.900833,80.286926c-109.279472,46.857971 -174.94562,82.479736 -325.170212,72.414917l-0.589813,6.914673l4.396667,0.346436l-0.010071,-0.037842l7.076202,0.439453l0.043091,-0.008789l0.788788,0.040527l-0.433899,6.640869l-0.831543,-0.030518l-0.044434,0.009155l-7.119537,-0.432007l-0.043243,0.008911l-4.396194,-0.345093l-0.843155,9.579346c9.817825,0.5896 19.323212,0.979492 28.521713,1.195313l-0.62056,133.157349c-12.820099,-0.160034 -25.975296,-0.600098 -39.474976,-1.404419l-0.597214,6.715576l7.620377,0.248291l0.043015,-0.008789l5.201874,0.101563l-0.196716,6.67334l-5.253601,-0.130859l-7.989197,-0.252686l-0.634537,7.607178c197.268642,13.217896 325.839233,-45.55249 429.30719,-89.9198c103.469269,-44.367554 187.241058,-79.374146 378.658264,-63.065796l0.888367,-7.86084l-0.140381,-0.01123l0.757751,-6.628662l0.096985,0.02124l0.979736,-8.723572c-2.487122,-0.198242 -4.923706,-0.359253 -7.377747,-0.539917l14.003296,-132.762573c2.660828,0.192383 5.309937,0.402466 7.993286,0.614624l0.919922,-8.429688l-3.760071,-0.194824l0.476624,-6.651001l4.031433,0.179199l0.623352,-5.755981l0,0l0,0l0,0zm-12.261047,5.20459l-0.390503,6.633301l-6.537781,-0.309204l-0.044312,0.009033l-8.559753,-0.337646l0.337219,-6.662354l8.613037,0.366699l0.043091,-0.008789l6.539001,0.30896zm-22.817078,-0.916138l-0.249695,6.644409l-5.220215,-0.176392l0.009888,0.037842l-9.913513,-0.26123l0.206665,-6.63562l9.903625,0.223389l0.043091,-0.008789l5.220154,0.176392zm-11.369629,13.906494l-10.273987,132.842896c-42.08844,-1.933167 -79.082764,-1.210815 -112.385559,1.62561l-8.131287,-131.807739c39.989807,-3.486694 83.392761,-4.637451 130.790833,-2.660767zm-11.441345,-14.461182l-0.109497,6.655518l-3.308777,-0.04541l-10.153748,-0.132324l0.01001,0.037842l-1.654419,-0.022705l0.01239,-6.676758l1.69812,0.015015l10.19696,0.122192l0.043457,-0.008911l3.265503,0.055542zm32.277405,157.899841l-0.661011,6.647461l-2.483765,-0.214355l-0.043335,0.008789l-9.13916,-0.621582l-3.349243,-0.197998l0.520508,-6.660034l3.359436,0.236938l0.043457,-0.008789l9.182251,0.611572l0.043335,-0.008789l0.010376,0.039063l2.517151,0.167725l0,0zm-55.084717,-158.093811l-0.012451,6.675659l-0.735291,-0.010254l-0.043579,0.008911l-9.788879,0.034912l-0.043335,0.008789l-4.478516,0.032104l-0.117798,-6.648926l4.521912,-0.042114l0.043213,-0.008911l9.876221,-0.051514l0.043335,-0.008789l0.735168,0.010132zm32.300842,156.608459l-0.433838,6.641113l-6.959229,-0.343994l-0.043518,0.009033l-8.115601,-0.387695l0.390198,-6.633301l8.148865,0.340942l0.053833,0.030151l6.95929,0.34375zm-55.137207,-156.394958l0.161255,6.640015l-7.195129,0.146973l-7.910461,0.212402l-0.257935,-6.660034l7.953369,-0.222534l0.053894,0.030151l7.195007,-0.146973zm32.344238,155.393005l-0.293274,6.653198l-1.577454,-0.078491l0.01001,0.037842l-8.442871,-0.240723l-0.043335,0.009033l-5.060242,-0.0896l0.196411,-6.673279l5.06012,0.089478l8.486328,0.231873l0.043335,-0.008911l1.620972,0.06958zm-55.122375,-154.788757l0.30127,6.651123l-3.268005,0.107056l-9.146484,0.385742l-2.706848,0.151611l-0.432068,-6.625732l2.70697,-0.151611l0.043396,-0.008911l9.189758,-0.394653l0.043518,-0.008789l3.268494,-0.105835zm32.287659,154.318604l-0.109192,6.656677l-3.860596,-0.054688l-0.043335,0.009033l-7.970276,-0.015869l-0.044495,0.009033l-3.147949,0.04126l-0.074585,-6.657776l3.192444,-0.050293l0.053101,0.028992l8.0578,-0.002014l0.043518,-0.008911l3.903564,0.044556zm-55.128235,-153.260376l0.518494,6.60791l-7.654907,0.481812l-0.044373,0.009033l-7.42804,0.47644l-0.571533,-6.636963l7.470886,-0.485229l0.043091,-0.008789l7.666382,-0.444214l0,0zm32.25238,153.322388l0.170776,6.677917l-4.965515,0.093018l-0.044556,0.009277l-7.639771,0.196777l-2.445251,0.099365l-0.344971,-6.643555l2.488525,-0.108154l0.044556,-0.009033l7.682678,-0.20575l0.043152,-0.00885l5.010376,-0.101013zm-55.026062,-151.835327l0.669678,6.658081l-2.382202,0.166138l-0.043091,0.008911l-8.471619,0.688843l-0.043121,0.008789l-4.106415,0.398315l-0.755402,-6.63916l4.116394,-0.360596l0.043091,-0.008789l8.504608,-0.736694l0.042969,-0.008911l2.42511,-0.174927zm32.147705,152.579651l0.430847,6.625977l-4.978577,0.215332l0.01001,0.037842l-7.30896,0.410889l-0.043091,0.008789l-2.74939,0.161743l-0.57312,-6.636597l2.794128,-0.170898l0.043091,-0.008789l7.351929,-0.419678l0.043274,-0.008789l4.979858,-0.21582zm-54.875519,-150.57843l0.84314,6.621338l-4.950623,0.491455l-0.044586,0.009155l-8.095032,0.893433l-0.042999,0.008789l-1.82193,0.21228l-1.026764,-6.623535l1.908203,-0.22998l0.01001,0.037842l8.182495,-0.911377l0.043091,-0.008789l4.994995,-0.50061zm32.071686,151.951965l0.659241,6.619141l-3.953247,0.285889l0.010254,0.039063l-6.986938,0.585693l-0.043091,0.008789l-4.063232,0.390625l-0.80014,-6.631348l4.063477,-0.389404l0.043091,-0.008911l7.029938,-0.595581l0.044434,-0.009033l3.996216,-0.294922zm-54.753876,-149.437683l1.069763,6.614868l-6.515228,0.811768l-0.043213,0.008789l-7.741364,1.021851l-0.04303,0.008789l-0.574188,0.077637l-1.243439,-6.579102l0.617279,-0.086548l0.04306,-0.008789l7.828705,-1.040894l0.042969,-0.008911l6.558685,-0.819458zm-2.560303,14.1521l17.247406,130.786255c-35.379303,4.842834 -66.595856,12.21283 -95.833588,21.190979l-42.318726,-126.575989c36.485016,-10.437744 76.454926,-19.372559 120.904907,-25.401245l0,0zm34.563446,137.371521l0.886017,6.612427l-2.004333,0.209717l-0.043091,0.008911l-6.612976,0.790527l-0.043091,0.008911l-6.20105,0.787354l-1.103943,-6.567749l6.245239,-0.796631l0.043121,-0.008789l6.698853,-0.80957l0.043091,-0.008789l2.092163,-0.226318zm-54.588257,-148.46698l1.286621,6.570313l-7.178223,1.068604l-0.043091,0.008789l-7.420837,1.197998l-0.216797,0.044312l-1.417389,-6.5448l0.216797,-0.044434l0.043091,-0.008789l7.463776,-1.206787l0.043091,-0.008789l7.222961,-1.076416zm31.866394,151.350769l1.286652,6.570313l-5.769958,0.859985l-0.043091,0.008789l-6.237762,0.995605l-0.043213,0.008911l-2.756195,0.484619l-1.417358,-6.544922l2.799622,-0.492188l0.043121,-0.008789l6.323944,-1.013306l0.044464,-0.009155l5.769775,-0.859863zm-54.3526,-147.750916l1.504578,6.525635l-6.955322,1.223633l-0.043152,0.008789l-7.793671,1.514893l-1.633942,-6.499268l7.8797,-1.533691l0.042908,-0.008789l6.998901,-1.231201zm31.896545,151.464294l1.503693,6.5271l-2.104858,0.349976l0.009949,0.037842l-5.968811,1.142456l-0.086212,0.0177l-6.514252,1.333862l-1.764893,-6.473633l6.600586,-1.351563l0.043091,-0.008789l6.089722,-1.205811l0.043091,-0.008911l2.148895,-0.360229zm-54.264374,-147.246765l1.721741,6.482422l-12.757324,2.652344l-0.086212,0.017578l-1.814392,0.411499l-1.895111,-6.445801l1.900574,-0.429077l0.043121,-0.008789l12.887604,-2.680176zm33.828674,158.225281l-9.44931,2.176758l-0.086212,0.0177l-5.064117,1.277588l-2.068817,-6.410156l5.149902,-1.296509l0.044464,-0.009033l0.043091,-0.008789l9.492798,-2.184448l1.938202,6.43689zm-54.105896,-146.997437l-4.191345,0.939331l-0.087555,0.017883l-10.277588,2.505981l-2.024475,-6.419312l10.363617,-2.52478l0.04303,-0.008789l4.279205,-0.956055l1.895111,6.44574zm32.291901,152.268433l-9.814453,2.694092l-0.087494,0.017944l-4.468201,1.276489l-2.363098,-6.310059l4.502258,-1.324585l0.042999,-0.008911l0.043091,-0.008789l9.912445,-2.672974l2.232452,6.336792zm-54.095459,-146.958435l-8.226196,2.125793l-0.087616,0.017883l-6.131561,1.738037l-2.285675,-6.365784l6.229187,-1.718079l0.043091,-0.00885l8.302094,-2.182434l2.156677,6.393433zm32.592102,153.050842l-9.594574,3.009399l-0.01001,-0.037842l-4.580933,1.541382l-2.666046,-6.248047l4.634064,-1.512329l0.043091,-0.008911l0.044403,-0.009033l9.6362,-3.017944l2.493805,6.283325zm-54.200928,-147.17865l-11.166382,3.291321l-0.043152,0.00885l-3.089996,0.954346l-2.535461,-6.27478l3.131683,-0.962891l0.043182,-0.008789l0.044434,-0.009155l11.209259,-3.301331l2.406433,6.302429zm32.985748,154.014832l-8.75116,3.078491l-0.043182,0.008911l-5.225098,1.874023l-2.8638,-6.126587l5.214844,-1.912964l0.043121,-0.008911l0.042969,-0.008789l8.795746,-3.087646l2.78656,6.183472zm-14.212311,-10.758545c-27.017761,9.680054 -52.939301,20.558594 -79.651917,31.950195c-6.970245,2.971191 -14.003021,5.983276 -21.134613,9.03125l-66.911118,-119.530701c6.935791,-2.991028 13.95047,-6.043335 21.157761,-9.115662c29.448853,-12.557922 61.193268,-25.409668 96.219818,-37.151733l50.320068,124.81665zm-40.218811,-136.774353l-1.565857,0.481445l-0.044373,0.009155l-11.500397,3.761047l-0.08609,0.017639l-0.925629,0.310425l-2.743469,-6.1922l1.011719,-0.328064l-0.010071,-0.037842l0.04306,-0.00885l11.631958,-3.789307l0.043091,-0.00885l1.608887,-0.490234l2.53717,6.275635zm33.49646,155.077087l-7.569733,2.876465l-0.086212,0.0177l-6.176178,2.430298l-3.125427,-6.074219l6.263855,-2.448242l0.042969,-0.008789l7.645996,-2.932007l3.00473,6.138794zm-54.670959,-148.088379l-3.275055,1.113159l-0.044373,0.009094l-10.701538,3.839355l-2.829681,-6.174561l10.744659,-3.848206l0.042969,-0.00885l3.319427,-1.122192l2.743591,6.1922zm33.97406,156.186035l-6.199249,2.514771l-0.043091,0.008789l-7.46579,3.097046l-3.244171,-6.008667l7.508881,-3.105835l-0.010071,-0.037842l0.043121,-0.008789l6.243408,-2.525146l3.166962,6.065674zm-54.96225,-148.672058l-4.21347,1.545959l-0.044464,0.009094l-9.648895,3.664978l-2.993362,-6.101196l9.692337,-3.672607l0.032715,-0.047852l4.257904,-1.554993l2.917236,6.156616l0,0zm34.464142,157.170227l-4.687653,2.005859l-8.90625,3.87439l-3.375061,-5.983154l8.917847,-3.835693l0.043182,-0.008789l-0.010315,-0.039063l4.697876,-1.966797l3.320374,5.953247zm-55.254654,-149.254089l-4.564835,1.778687l-0.043015,0.008789l-9.185211,3.689697l-3.113693,-6.0354l9.185287,-3.689697l0.04306,-0.00885l-0.010376,-0.039001l4.60791,-1.787476l3.080872,6.083252zm34.890915,158.087585l-12.539063,5.543213l-0.981506,0.44165l-3.417938,-5.973145l0.991669,-0.403809l12.58197,-5.552002l3.364868,5.944092zm-55.494232,-149.808472l-4.413681,1.828796l-9.273941,3.868652l-3.287323,-5.999878l9.308044,-3.916748l4.422745,-1.789551l3.244156,6.008728zm35.170898,158.794434l-11.109741,4.889038l0.010071,0.037842l-2.463882,1.066772l-3.374786,-5.981934l2.42041,-1.059204l0.044479,-0.009033l11.055542,-4.916626l3.417908,5.973145zm-55.691742,-150.21051l-13.624146,5.765442l-1.665985,-2.995972l-1.666046,-2.995972l0.044434,-0.009094l13.624557,-5.764282l3.287186,5.999878zm35.358597,159.15863l-9.854675,4.269287l-0.033096,0.046631l-3.749435,1.571899l-3.321686,-5.953003l3.73938,-1.609619l9.844604,-4.307129l3.374908,5.981934zm-55.807266,-150.468689l-12.535034,5.381714l-1.110855,0.468018l-3.331757,-5.990723l1.111938,-0.469604l0.043076,-0.008789l12.492233,-5.371582l3.330399,5.990967zm35.302872,159.290955l-8.860489,3.704224l-0.043152,0.008911l-4.827271,1.993164l-3.211487,-6.056519l4.79425,-1.946533l0.044449,-0.009155l8.859131,-3.703979l3.244568,6.009888zm-9.980881,-13.273071c-34.722672,14.210327 -71.944565,28.113037 -113.250809,39.391357l-46.472187,-125.322876c33.940586,-9.315857 65.369137,-21.696411 98.354069,-35.658997l61.368927,121.590515zm-45.801987,-137.280212l-11.183762,4.781982l-2.473892,1.028931l-3.287247,-5.999878l2.473892,-1.028931l11.183441,-4.783203l3.287567,6.001099zm35.100876,159.049255l-8.236679,3.2948l-0.04303,0.008789l-5.609238,2.154663l-2.993469,-6.101196l5.52211,-2.135498l0.043091,-0.008911l8.203674,-3.248047l3.113541,6.0354zm-55.646088,-150.380676l-0.163376,0.074585l-0.043015,0.00885l0.009918,0.037842l-9.50206,3.875488l-0.043152,0.00885l-4.052322,1.63385l-3.158417,-6.027527l4.010681,-1.625366l0.043091,-0.008789l9.447693,-3.904236l0.043091,-0.00885l0.16362,-0.073364l3.244247,6.008667zm34.765427,158.476013l-8.133911,2.991943l-0.043015,0.008911l-5.899567,2.09314l-2.83107,-6.174316l5.900864,-2.093506l0.01033,0.039063l8.036057,-3.013062l2.960312,6.147827zm-55.467484,-150.055725l-8.126221,3.192383l-0.043083,0.008789l-5.783195,2.188965l-3.004761,-6.138672l5.783272,-2.189026l0.010056,0.037781l8.040245,-3.173462l3.123688,6.073242zm34.26123,157.614441l-8.563614,2.919189l-0.044373,0.009033l-5.656189,1.801514l-2.579895,-6.265625l5.570007,-1.783936l0.042953,-0.008789l8.531937,-2.872803l2.699173,6.201416zm-55.215454,-149.624939l-6.510681,2.37915l-0.043083,0.008789l-7.585938,2.63916l-2.78804,-6.183105l7.499832,-2.621582l0.043015,-0.008789l6.467735,-2.3703l2.91716,6.156677zm33.760956,156.591125l-9.743912,2.960205l-0.043076,0.008789l-0.044449,0.009033l-4.598732,1.303223l-2.328682,-6.356934l4.598747,-1.303223l0.010056,0.037842l9.700829,-2.951294l2.449219,6.292358zm-55.040482,-149.137146l-4.875221,1.641602l-0.043015,0.008789l-9.387794,2.927124l-2.5354,-6.27478l9.298584,-2.910095l0.044365,-0.009094l4.832138,-1.63269l2.666344,6.249146zm33.327667,155.473206l-11.900513,3.119995l-0.043083,0.008789l-0.043091,0.008789l-2.662567,0.66626l-2.026054,-6.420166l2.619743,-0.65625l0.043152,-0.008789l11.812645,-3.103271l2.199768,6.384644zm-54.886089,-148.727478l-3.403,0.978577l-0.034447,0.046936l-0.043083,0.008789l-10.206638,2.773193l-0.043087,0.008789l-0.043087,0.008911l-0.815052,0.208008l-2.102249,-6.364746l0.770966,-0.197754l0.043015,-0.008789l10.067455,-2.784546l0.043018,-0.008789l3.349854,-1.007629l2.416336,6.33905zm32.926434,154.309998l-2.325577,0.55603l-0.043083,0.008789l-0.043015,0.008789l-12.316109,2.763916l-1.895386,-6.447021l12.228775,-2.744629l0.086174,-0.017822l2.28215,-0.54834l2.02607,6.420288zm-54.805248,-148.422424l-2.228931,0.577393l-0.043018,0.008789l-0.043087,0.008789l-10.524921,2.435669l-0.043087,0.00885l-0.044502,0.009094l-1.909302,0.390991l-1.765858,-6.472229l1.867561,-0.382385l0.086174,-0.0177l10.307869,-2.392456l0.087387,-0.017944l2.140125,-0.559143l2.11359,6.402283zm30.896793,146.844666l1.678741,6.491211l-6.036324,1.236084l-0.053215,-0.028931l-6.663979,1.283569l-0.043087,0.008789l-2.094402,0.389038l-1.504978,-6.526978l2.050312,-0.378662l0.044434,-0.009033l6.576111,-1.266846l0.044434,-0.009155l6.001953,-1.189087zm-11.340176,-5.637451c-38.238674,8.187988 -79.884937,13.87793 -126.048306,15.519409l-8.635605,-132.669312c37.352295,-0.70166 69.758934,-4.628296 99.564259,-10.940063l35.119652,128.089966zm-41.765869,-136.216858l-1.432716,0.293396l-0.044437,0.009094l-0.043018,0.00885l-10.906349,2.03125l-0.043018,0.008911l-2.539452,0.440308l-1.417389,-6.544922l2.452133,-0.421082l0.043087,-0.00885l10.776752,-2.006042l0.086102,-0.0177l1.303394,-0.266846l1.764912,6.473633zm30.998573,146.019836l1.418804,6.544434l-4.123108,0.683594l-6.974434,1.146362l-0.044434,0.009155l-3.827515,0.583008l-1.288128,-6.571289l3.785717,-0.574463l0.043083,-0.008789l6.888252,-1.128906l0.043087,-0.008789l4.078674,-0.674316zm-54.845707,-148.575012l1.32122,6.524719l-1.138676,0.191895l-0.043087,0.008911l-5.6838,0.842163l-0.043087,0.008911l-5.712505,0.728394l-0.044502,0.009277l-2.482658,0.306396l-1.016579,-6.585876l2.396149,-0.289917l0.043091,-0.008789l5.6166,-0.747559l0.043083,-0.008789l5.596279,-0.824341l0.043087,-0.008789l1.105385,-0.146606zm32.55703,152.053284l1.200676,6.589111l-2.96032,0.405518l-0.043087,0.008789l-7.340931,0.979736l-0.043087,0.008789l-4.703487,0.561768l-1.016579,-6.585693l4.650204,-0.59082l0.043156,-0.008789l7.210052,-0.954102l0.043087,-0.008789l2.960316,-0.405518zm-54.868057,-149.172424l0.930412,6.603333l-1.646866,0.176514l-0.04451,0.009033l-0.043083,0.008789l-5.894035,0.563721l-0.043076,0.008789l-5.99028,0.543457l-0.054428,-0.028564l-1.526588,0.110596l-0.616173,-6.62793l1.440483,-0.093018l0.043083,-0.008789l5.914162,-0.488037l0.043083,-0.008789l5.797867,-0.583923l0.087524,-0.017944l1.602425,-0.167236zm32.449116,151.994202l0.983826,6.633667l-2.762585,0.284058l-0.044434,0.009033l-7.66151,0.804688l-0.043087,0.008789l-4.64764,0.429443l-0.789867,-6.592285l4.594692,-0.458496l0.043087,-0.008789l7.575268,-0.787109l0.043087,-0.008789l2.709164,-0.314209zm-54.882977,-150.094238l0.528511,6.645752l-3.15049,0.202637l-0.043091,0.008789l-6.193138,0.303223l-0.043144,0.008911l-5.801315,0.223022l-0.344551,-6.642334l5.747963,-0.253174l0.043076,-0.008789l6.105682,-0.285522l0.043022,-0.008911l3.107475,-0.193604zm32.399811,152.327148l0.756775,6.638916l-3.532257,0.320801l-0.010056,-0.037842l-8.06955,0.647705l-3.595474,0.253662l-0.571533,-6.636963l3.507881,-0.23584l0.043083,-0.008789l7.983307,-0.630005l0.043091,-0.008911l3.444733,-0.302734zm-54.946129,-151.369141l0.161064,6.641357l-5.745667,0.09082l-0.043076,0.008789l-6.544174,0.013672l-0.043091,0.008789l-2.888,-0.011963l0.012909,-6.675781l2.844696,0.019775l0.096527,0.02124l6.403473,-0.024658l0.044525,-0.009155l5.700813,-0.082886zm32.398201,153.010742l0.528656,6.645752l-5.360321,0.333496l-0.043152,0.008789l-8.444763,0.442871l-0.053146,-0.029053l-1.309479,0.067383l-0.389252,-6.634277l1.310814,-0.067871l0.043159,-0.008789l8.357231,-0.424805l0.043022,-0.008789l5.31723,-0.324707zm-55.014877,-153.001709l-0.152222,6.664185l-2.855103,-0.058594l-0.04303,0.008911l-6.788788,-0.218018l-0.042999,0.008789l-5.512405,-0.23877l0.347733,-6.623291l5.457489,0.208862l0.044434,-0.009155l6.691193,0.197998l0.043167,-0.008789l2.810532,0.067871l0,0zm32.421631,154.130249l0.257294,6.661499l-8.344604,0.30127l-0.043159,0.008789l-6.783501,0.143799l-0.204163,-6.632446l6.729424,-0.171265l0.044365,-0.009033l8.344345,-0.302612zm-22.681793,0.62439l0.161011,6.641113l-3.505325,0.074707l-9.18364,0.071777l-2.563553,0.001221l-0.021469,-6.628662l2.510193,-0.031494l0.043182,-0.008789l9.097321,-0.054199l0.043076,-0.008789l3.419205,-0.056885zm-22.629639,0.131104l-0.055725,6.685791l-8.62973,-0.082764l-0.043076,0.008789l-6.530136,-0.110107l0.10907,-6.655518l6.530197,0.110107l8.6194,0.043701z"/>
  </g>
 </g>
</svg>